<svg xmlns="http://www.w3.org/2000/svg" version="1.1" xmlns:xlink="http://www.w3.org/1999/xlink" xmlns:svgjs="http://svgjs.dev/svgjs" width="1500" height="1500" viewBox="0 0 1500 1500"><rect width="1500" height="1500" fill="#ffffff"></rect><g transform="matrix(0.6666666666666666,0,0,0.6666666666666666,249.39393939393932,624.9862736022599)"><svg viewBox="0 0 396 99" data-background-color="#ffffff" preserveAspectRatio="xMidYMid meet" height="375" width="1500" xmlns="http://www.w3.org/2000/svg" xmlns:xlink="http://www.w3.org/1999/xlink"><g id="tight-bounds" transform="matrix(1,0,0,1,0.24000000000003752,0.005435653505088567)"><svg viewBox="0 0 395.5199999999999 98.98912869298984" height="98.98912869298984" width="395.5199999999999"><g><svg viewBox="0 0 565.0809650193305 141.42615384369287" height="98.98912869298984" width="395.5199999999999"><g transform="matrix(1,0,0,1,169.56096501933052,40.91884627616703)"><svg viewBox="0 0 395.52 59.58846129135881" height="59.58846129135881" width="395.52"><g id="textblocktransform"><svg viewBox="0 0 395.52 59.58846129135881" height="59.58846129135881" width="395.52" id="textblock"><g><svg viewBox="0 0 395.52 59.58846129135881" height="59.58846129135881" width="395.52"><g transform="matrix(1,0,0,1,0,0)"><svg width="395.52" viewBox="4.35 -35.9 311.27 46.9" height="59.58846129135881" data-palette-color="#e1e1e3"><path d="M8.05 0L5.5 0Q4.95 0 4.65-0.33 4.35-0.65 4.35-1.15L4.35-1.15 4.35-33.8Q4.35-34.35 4.65-34.68 4.95-35 5.5-35L5.5-35 17.7-35Q23.35-35 26.65-32.35 29.95-29.7 29.95-24.5L29.95-24.5Q29.95-20.65 28.03-18.23 26.1-15.8 22.8-14.85L22.8-14.85 30.5-1.55Q30.65-1.25 30.65-1L30.65-1Q30.65-0.6 30.33-0.3 30 0 29.6 0L29.6 0 27.2 0Q26.35 0 25.95-0.45 25.55-0.9 25.25-1.35L25.25-1.35 18-14.05 9.25-14.05 9.25-1.15Q9.25-0.65 8.93-0.33 8.6 0 8.05 0L8.05 0ZM9.25-30.8L9.25-18.3 17.5-18.3Q21.25-18.3 23.1-19.88 24.95-21.45 24.95-24.55L24.95-24.55Q24.95-27.6 23.13-29.2 21.3-30.8 17.5-30.8L17.5-30.8 9.25-30.8ZM47.1 0.5L47.1 0.5Q43.3 0.5 40.75-0.95 38.2-2.4 36.85-4.98 35.5-7.55 35.35-10.85L35.35-10.85Q35.3-11.7 35.3-13.03 35.3-14.35 35.35-15.15L35.35-15.15Q35.5-18.5 36.87-21.05 38.25-23.6 40.8-25.05 43.35-26.5 47.1-26.5L47.1-26.5Q50.85-26.5 53.4-25.05 55.95-23.6 57.32-21.05 58.7-18.5 58.85-15.15L58.85-15.15Q58.9-14.35 58.9-13.03 58.9-11.7 58.85-10.85L58.85-10.85Q58.7-7.55 57.35-4.98 56-2.4 53.45-0.95 50.9 0.5 47.1 0.5ZM47.1-3.35L47.1-3.35Q50.2-3.35 52.05-5.33 53.9-7.3 54.05-11.1L54.05-11.1Q54.1-11.85 54.1-13 54.1-14.15 54.05-14.9L54.05-14.9Q53.9-18.7 52.05-20.68 50.2-22.65 47.1-22.65L47.1-22.65Q44-22.65 42.12-20.68 40.25-18.7 40.15-14.9L40.15-14.9Q40.1-14.15 40.1-13 40.1-11.85 40.15-11.1L40.15-11.1Q40.25-7.3 42.12-5.33 44-3.35 47.1-3.35ZM76.35 0L74.2 0Q73.45 0 73.02-0.35 72.6-0.7 72.35-1.25L72.35-1.25 63.1-24.45Q63-24.7 63-24.95L63-24.95Q63-25.4 63.3-25.7 63.6-26 64.05-26L64.05-26 66.45-26Q67-26 67.3-25.7 67.6-25.4 67.7-25.15L67.7-25.15 75.3-5.45 82.9-25.15Q83-25.4 83.27-25.7 83.55-26 84.1-26L84.1-26 86.55-26Q86.95-26 87.27-25.7 87.6-25.4 87.6-24.95L87.6-24.95Q87.6-24.7 87.5-24.45L87.5-24.45 78.2-1.25Q78-0.7 77.57-0.35 77.15 0 76.35 0L76.35 0ZM96.39 0L93.99 0Q93.49 0 93.17-0.33 92.84-0.65 92.84-1.15L92.84-1.15 92.84-24.85Q92.84-25.35 93.17-25.68 93.49-26 93.99-26L93.99-26 96.39-26Q96.89-26 97.22-25.68 97.54-25.35 97.54-24.85L97.54-24.85 97.54-1.15Q97.54-0.65 97.22-0.33 96.89 0 96.39 0L96.39 0ZM96.74-30.85L93.59-30.85Q93.09-30.85 92.77-31.18 92.44-31.5 92.44-32L92.44-32 92.44-34.7Q92.44-35.2 92.77-35.55 93.09-35.9 93.59-35.9L93.59-35.9 96.74-35.9Q97.24-35.9 97.59-35.55 97.94-35.2 97.94-34.7L97.94-34.7 97.94-32Q97.94-31.5 97.59-31.18 97.24-30.85 96.74-30.85L96.74-30.85ZM115.34 0.5L115.34 0.5Q110.14 0.5 107.09-2.68 104.04-5.85 103.74-11.35L103.74-11.35Q103.69-12 103.69-13.03 103.69-14.05 103.74-14.7L103.74-14.7Q103.94-18.25 105.39-20.93 106.84-23.6 109.37-25.05 111.89-26.5 115.29-26.5L115.29-26.5Q119.09-26.5 121.67-24.9 124.24-23.3 125.59-20.35 126.94-17.4 126.94-13.45L126.94-13.45 126.94-12.6Q126.94-12.05 126.62-11.75 126.29-11.45 125.79-11.45L125.79-11.45 108.49-11.45Q108.49-11.4 108.49-11.25 108.49-11.1 108.49-11L108.49-11Q108.59-8.95 109.39-7.18 110.19-5.4 111.72-4.3 113.24-3.2 115.29-3.2L115.29-3.2Q117.09-3.2 118.29-3.75 119.49-4.3 120.24-4.98 120.99-5.65 121.24-6.05L121.24-6.05Q121.69-6.65 121.94-6.78 122.19-6.9 122.74-6.9L122.74-6.9 125.19-6.9Q125.64-6.9 125.97-6.63 126.29-6.35 126.24-5.85L126.24-5.85Q126.19-5.1 125.44-4.03 124.69-2.95 123.32-1.9 121.94-0.85 119.92-0.18 117.89 0.5 115.34 0.5ZM108.49-15.05L108.49-14.9 122.19-14.9 122.19-15.05Q122.19-17.3 121.37-19.05 120.54-20.8 118.99-21.83 117.44-22.85 115.29-22.85L115.29-22.85Q113.14-22.85 111.62-21.83 110.09-20.8 109.29-19.05 108.49-17.3 108.49-15.05L108.49-15.05ZM141.79 0L139.84 0Q139.19 0 138.84-0.33 138.49-0.65 138.24-1.25L138.24-1.25 131.14-24.45Q131.04-24.7 131.04-24.95L131.04-24.95Q131.04-25.4 131.36-25.7 131.69-26 132.09-26L132.09-26 134.29-26Q134.84-26 135.14-25.7 135.44-25.4 135.54-25.15L135.54-25.15 141.09-6.3 147.04-24.95Q147.14-25.3 147.46-25.65 147.79-26 148.44-26L148.44-26 150.14-26Q150.79-26 151.14-25.65 151.49-25.3 151.54-24.95L151.54-24.95 157.49-6.3 163.04-25.15Q163.09-25.4 163.39-25.7 163.69-26 164.24-26L164.24-26 166.49-26Q166.89-26 167.19-25.7 167.49-25.4 167.49-24.95L167.49-24.95Q167.49-24.7 167.39-24.45L167.39-24.45 160.34-1.25Q160.14-0.65 159.79-0.33 159.44 0 158.69 0L158.69 0 156.74 0Q156.09 0 155.66-0.33 155.24-0.65 155.09-1.25L155.09-1.25 149.29-19.15 143.49-1.25Q143.29-0.65 142.89-0.33 142.49 0 141.79 0L141.79 0ZM176.64 0L174.19 0Q173.69 0 173.36-0.33 173.03-0.65 173.03-1.15L173.03-1.15 173.03-24.8Q173.03-25.3 173.36-25.65 173.69-26 174.19-26L174.19-26 176.49-26Q176.99-26 177.34-25.65 177.69-25.3 177.69-24.8L177.69-24.8 177.69-22.6Q178.69-24.3 180.44-25.15 182.19-26 184.69-26L184.69-26 186.64-26Q187.14-26 187.46-25.68 187.78-25.35 187.78-24.85L187.78-24.85 187.78-22.8Q187.78-22.3 187.46-22 187.14-21.7 186.64-21.7L186.64-21.7 183.64-21.7Q180.94-21.7 179.39-20.13 177.84-18.55 177.84-15.85L177.84-15.85 177.84-1.15Q177.84-0.65 177.49-0.33 177.14 0 176.64 0L176.64 0ZM195.58 0L193.18 0Q192.68 0 192.36-0.33 192.03-0.65 192.03-1.15L192.03-1.15 192.03-24.85Q192.03-25.35 192.36-25.68 192.68-26 193.18-26L193.18-26 195.58-26Q196.08-26 196.41-25.68 196.73-25.35 196.73-24.85L196.73-24.85 196.73-1.15Q196.73-0.65 196.41-0.33 196.08 0 195.58 0L195.58 0ZM195.93-30.85L192.78-30.85Q192.28-30.85 191.96-31.18 191.63-31.5 191.63-32L191.63-32 191.63-34.7Q191.63-35.2 191.96-35.55 192.28-35.9 192.78-35.9L192.78-35.9 195.93-35.9Q196.43-35.9 196.78-35.55 197.13-35.2 197.13-34.7L197.13-34.7 197.13-32Q197.13-31.5 196.78-31.18 196.43-30.85 195.93-30.85L195.93-30.85ZM217.73 0L214.28 0Q211.48 0 209.73-1.07 207.98-2.15 207.18-4.13 206.38-6.1 206.38-8.8L206.38-8.8 206.38-22 202.48-22Q201.98-22 201.66-22.33 201.33-22.65 201.33-23.15L201.33-23.15 201.33-24.85Q201.33-25.35 201.66-25.68 201.98-26 202.48-26L202.48-26 206.38-26 206.38-34.35Q206.38-34.85 206.71-35.18 207.03-35.5 207.53-35.5L207.53-35.5 209.88-35.5Q210.38-35.5 210.71-35.18 211.03-34.85 211.03-34.35L211.03-34.35 211.03-26 217.23-26Q217.78-26 218.08-25.68 218.38-25.35 218.38-24.85L218.38-24.85 218.38-23.15Q218.38-22.65 218.08-22.33 217.78-22 217.23-22L217.23-22 211.03-22 211.03-9.15Q211.03-6.8 211.83-5.45 212.63-4.1 214.68-4.1L214.68-4.1 217.73-4.1Q218.23-4.1 218.56-3.78 218.88-3.45 218.88-2.95L218.88-2.95 218.88-1.15Q218.88-0.65 218.56-0.33 218.23 0 217.73 0L217.73 0ZM227.23 0L224.83 0Q224.33 0 224-0.33 223.68-0.65 223.68-1.15L223.68-1.15 223.68-24.85Q223.68-25.35 224-25.68 224.33-26 224.83-26L224.83-26 227.23-26Q227.73-26 228.05-25.68 228.38-25.35 228.38-24.85L228.38-24.85 228.38-1.15Q228.38-0.65 228.05-0.33 227.73 0 227.23 0L227.23 0ZM227.58-30.85L224.43-30.85Q223.93-30.85 223.6-31.18 223.28-31.5 223.28-32L223.28-32 223.28-34.7Q223.28-35.2 223.6-35.55 223.93-35.9 224.43-35.9L224.43-35.9 227.58-35.9Q228.08-35.9 228.43-35.55 228.78-35.2 228.78-34.7L228.78-34.7 228.78-32Q228.78-31.5 228.43-31.18 228.08-30.85 227.58-30.85L227.58-30.85ZM239.43 0L236.93 0Q236.43 0 236.1-0.33 235.78-0.65 235.78-1.15L235.78-1.15 235.78-24.85Q235.78-25.35 236.1-25.68 236.43-26 236.93-26L236.93-26 239.28-26Q239.78-26 240.1-25.68 240.43-25.35 240.43-24.85L240.43-24.85 240.43-22.65Q241.73-24.35 243.7-25.43 245.68-26.5 248.78-26.5L248.78-26.5Q252.03-26.5 254.3-25.08 256.58-23.65 257.75-21.13 258.93-18.6 258.93-15.25L258.93-15.25 258.93-1.15Q258.93-0.65 258.6-0.33 258.28 0 257.78 0L257.78 0 255.28 0Q254.78 0 254.45-0.33 254.13-0.65 254.13-1.15L254.13-1.15 254.13-15Q254.13-18.5 252.43-20.48 250.73-22.45 247.43-22.45L247.43-22.45Q244.33-22.45 242.45-20.48 240.58-18.5 240.58-15L240.58-15 240.58-1.15Q240.58-0.65 240.25-0.33 239.93 0 239.43 0L239.43 0ZM276.72 11L276.72 11Q273.32 11 271.15 10.1 268.97 9.2 267.75 7.93 266.52 6.65 266 5.38 265.47 4.1 265.42 3.35L265.42 3.35Q265.37 2.85 265.75 2.5 266.12 2.15 266.57 2.15L266.57 2.15 268.97 2.15Q269.42 2.15 269.72 2.35 270.02 2.55 270.22 3.2L270.22 3.2Q270.52 3.95 271.12 4.88 271.72 5.8 272.97 6.48 274.22 7.15 276.47 7.15L276.47 7.15Q278.82 7.15 280.42 6.5 282.02 5.85 282.85 4.3 283.67 2.75 283.67 0L283.67 0 283.67-3.4Q282.47-1.85 280.52-0.83 278.57 0.2 275.62 0.2L275.62 0.2Q272.82 0.2 270.82-0.78 268.82-1.75 267.55-3.43 266.27-5.1 265.65-7.25 265.02-9.4 264.92-11.75L264.92-11.75Q264.87-13.15 264.92-14.5L264.92-14.5Q265.02-16.85 265.65-19 266.27-21.15 267.55-22.85 268.82-24.55 270.82-25.53 272.82-26.5 275.62-26.5L275.62-26.5Q278.62-26.5 280.6-25.4 282.57-24.3 283.82-22.65L283.82-22.65 283.82-24.8Q283.82-25.3 284.15-25.65 284.47-26 284.97-26L284.97-26 287.27-26Q287.77-26 288.12-25.65 288.47-25.3 288.47-24.8L288.47-24.8 288.47-0.55Q288.47 2.8 287.35 5.4 286.22 8 283.65 9.5 281.07 11 276.72 11ZM276.62-3.8L276.62-3.8Q279.12-3.8 280.65-4.95 282.17-6.1 282.9-7.85 283.62-9.6 283.67-11.4L283.67-11.4Q283.72-12.1 283.72-13.13 283.72-14.15 283.67-14.85L283.67-14.85Q283.62-16.65 282.9-18.4 282.17-20.15 280.65-21.3 279.12-22.45 276.62-22.45L276.62-22.45Q274.12-22.45 272.62-21.33 271.12-20.2 270.47-18.38 269.82-16.55 269.72-14.45L269.72-14.45Q269.67-13.15 269.72-11.8L269.72-11.8Q269.82-9.7 270.47-7.88 271.12-6.05 272.62-4.93 274.12-3.8 276.62-3.8ZM304.92 0.5L304.92 0.5Q302.12 0.5 300.12-0.2 298.12-0.9 296.87-1.9 295.62-2.9 295-3.9 294.37-4.9 294.32-5.5L294.32-5.5Q294.27-6.05 294.67-6.35 295.07-6.65 295.47-6.65L295.47-6.65 297.72-6.65Q297.97-6.65 298.15-6.58 298.32-6.5 298.62-6.15L298.62-6.15Q299.27-5.45 300.07-4.75 300.87-4.05 302.05-3.6 303.22-3.15 304.97-3.15L304.97-3.15Q307.52-3.15 309.17-4.13 310.82-5.1 310.82-7L310.82-7Q310.82-8.25 310.15-9 309.47-9.75 307.75-10.35 306.02-10.95 303.02-11.6L303.02-11.6Q300.02-12.3 298.27-13.33 296.52-14.35 295.77-15.78 295.02-17.2 295.02-19L295.02-19Q295.02-20.85 296.12-22.58 297.22-24.3 299.35-25.4 301.47-26.5 304.67-26.5L304.67-26.5Q307.27-26.5 309.12-25.85 310.97-25.2 312.17-24.23 313.37-23.25 313.97-22.3 314.57-21.35 314.62-20.7L314.62-20.7Q314.67-20.2 314.32-19.88 313.97-19.55 313.52-19.55L313.52-19.55 311.42-19.55Q311.07-19.55 310.85-19.7 310.62-19.85 310.42-20.05L310.42-20.05Q309.92-20.7 309.25-21.35 308.57-22 307.5-22.43 306.42-22.85 304.67-22.85L304.67-22.85Q302.17-22.85 300.92-21.8 299.67-20.75 299.67-19.15L299.67-19.15Q299.67-18.2 300.22-17.45 300.77-16.7 302.32-16.1 303.87-15.5 306.92-14.8L306.92-14.8Q310.22-14.15 312.12-13.05 314.02-11.95 314.82-10.5 315.62-9.05 315.62-7.15L315.62-7.15Q315.62-5.05 314.42-3.3 313.22-1.55 310.82-0.53 308.42 0.5 304.92 0.5Z" opacity="1" transform="matrix(1,0,0,1,0,0)" fill="#e1e1e3" class="wordmark-text-0" data-fill-palette-color="primary" id="text-0"></path></svg></g></svg></g></svg></g></svg></g><g><svg viewBox="0 0 141.42615384369287 141.42615384369287" height="141.42615384369287" width="141.42615384369287"><g><svg></svg></g><g id="icon-0"><svg viewBox="0 0 141.42615384369287 141.42615384369287" height="141.42615384369287" width="141.42615384369287"><g><path d="M0 70.713c0-39.054 31.659-70.713 70.713-70.713 39.054 0 70.713 31.659 70.713 70.713 0 39.054-31.659 70.713-70.713 70.713-39.054 0-70.713-31.659-70.713-70.713zM70.713 136.052c36.086 0 65.339-29.253 65.339-65.339 0-36.086-29.253-65.339-65.339-65.339-36.086 0-65.339 29.253-65.339 65.339 0 36.086 29.253 65.339 65.339 65.339z" data-fill-palette-color="accent" fill="#ead6fb" stroke="transparent"></path></g><g transform="matrix(1,0,0,1,57.60902132552039,33.1531486333874)"><svg viewBox="0 0 26.2081111926521 75.11985657691807" height="75.11985657691807" width="26.2081111926521"><g><svg xmlns="http://www.w3.org/2000/svg" version="1.1" x="0" y="0" viewBox="34.300219999999996 5 31.399559999999994 90.00001665284617" height="75.11985657691807" width="26.2081111926521" class="icon-cg-0" data-fill-palette-color="accent" id="cg-0"><path d="M53.456 5c-3.566 0-6.468 2.889-6.468 6.455 0 3.566 2.902 6.455 6.468 6.454 3.566 0 6.455-2.889 6.454-6.454C59.91 7.889 57.021 5 53.456 5z m-3.769 21.881c-5.633-0.02-11.69 3.063-15.387 10.079 5.269-4.151 30.615-10.892 12.844 19.586-0.87 1.492-1.643 2.964-2.334 4.394-1.956 3.561-4.095 7.518-6.076 11.958-5.993 13.423 2.191 22.069 11.579 22.102 5.633 0.02 11.69-3.063 15.387-10.08-5.269 4.151-30.615 10.892-12.844-19.585 0.87-1.492 1.643-2.964 2.334-4.395 1.955-3.561 4.095-7.518 6.076-11.957 5.993-13.423-2.191-22.069-11.579-22.102z" fill="#ead6fb" fill-rule="evenodd" color="#ead6fb" data-fill-palette-color="accent"></path></svg></g></svg></g></svg></g></svg></g></svg></g><defs></defs></svg><rect width="395.5199999999999" height="98.98912869298984" fill="none" stroke="none" visibility="hidden"></rect></g></svg></g></svg>